<mxfile host="app.diagrams.net" agent="Mozilla/5.0 (Windows NT 10.0; Win64; x64) AppleWebKit/537.36 (KHTML, like Gecko) Chrome/134.0.0.0 Safari/537.36 OPR/119.0.0.0 (Edition std-2)" version="27.2.0">
  <diagram name="Página-1" id="rdzMfFj89MIpavg5kFsg">
    <mxGraphModel grid="1" page="1" gridSize="10" guides="1" tooltips="1" connect="1" arrows="1" fold="1" pageScale="1" pageWidth="827" pageHeight="1169" math="0" shadow="0">
      <root>
        <mxCell id="0" />
        <mxCell id="1" parent="0" />
        <mxCell id="5meDuc_fsTC-Nidfgsel-9" value="Usuario" style="shape=umlLifeline;perimeter=lifelinePerimeter;whiteSpace=wrap;container=1;dropTarget=0;collapsible=0;recursiveResize=0;outlineConnect=0;portConstraint=eastwest;newEdgeStyle={&quot;edgeStyle&quot;:&quot;elbowEdgeStyle&quot;,&quot;elbow&quot;:&quot;vertical&quot;,&quot;curved&quot;:0,&quot;rounded&quot;:0};participant=umlActor;verticalAlign=bottom;labelPosition=center;verticalLabelPosition=top;align=center;size=65;" vertex="1" parent="1">
          <mxGeometry x="1030" y="530" width="35" height="414" as="geometry" />
        </mxCell>
        <mxCell id="5meDuc_fsTC-Nidfgsel-10" value="Sistema" style="shape=umlLifeline;perimeter=lifelinePerimeter;whiteSpace=wrap;container=1;dropTarget=0;collapsible=0;recursiveResize=0;outlineConnect=0;portConstraint=eastwest;newEdgeStyle={&quot;edgeStyle&quot;:&quot;elbowEdgeStyle&quot;,&quot;elbow&quot;:&quot;vertical&quot;,&quot;curved&quot;:0,&quot;rounded&quot;:0};size=65;" vertex="1" parent="1">
          <mxGeometry x="1582" y="530" width="150" height="414" as="geometry" />
        </mxCell>
        <mxCell id="5meDuc_fsTC-Nidfgsel-11" value="" style="points=[];perimeter=orthogonalPerimeter;outlineConnect=0;targetShapes=umlLifeline;portConstraint=eastwest;newEdgeStyle={&quot;edgeStyle&quot;:&quot;elbowEdgeStyle&quot;,&quot;elbow&quot;:&quot;vertical&quot;,&quot;curved&quot;:0,&quot;rounded&quot;:0}" vertex="1" parent="5meDuc_fsTC-Nidfgsel-10">
          <mxGeometry x="70" y="107" width="10" height="212" as="geometry" />
        </mxCell>
        <mxCell id="5meDuc_fsTC-Nidfgsel-12" value="iniciarCriacaoInimigo()" style="verticalAlign=bottom;edgeStyle=elbowEdgeStyle;elbow=vertical;curved=0;rounded=0;endArrow=block;" edge="1" parent="1" source="5meDuc_fsTC-Nidfgsel-9" target="5meDuc_fsTC-Nidfgsel-11">
          <mxGeometry x="-0.0009" relative="1" as="geometry">
            <Array as="points">
              <mxPoint x="1390" y="637" />
            </Array>
            <mxPoint as="offset" />
          </mxGeometry>
        </mxCell>
        <mxCell id="5meDuc_fsTC-Nidfgsel-13" value="criarInimigo(dadosInimigo)" style="verticalAlign=bottom;edgeStyle=elbowEdgeStyle;elbow=vertical;curved=0;rounded=0;endArrow=block;" edge="1" parent="1" source="5meDuc_fsTC-Nidfgsel-9" target="5meDuc_fsTC-Nidfgsel-11">
          <mxGeometry relative="1" as="geometry">
            <Array as="points">
              <mxPoint x="1388" y="738" />
            </Array>
          </mxGeometry>
        </mxCell>
        <mxCell id="5meDuc_fsTC-Nidfgsel-14" value="InimigoCriado" style="verticalAlign=bottom;edgeStyle=elbowEdgeStyle;elbow=vertical;curved=0;rounded=0;dashed=1;dashPattern=2 3;endArrow=block;" edge="1" parent="1" source="5meDuc_fsTC-Nidfgsel-11" target="5meDuc_fsTC-Nidfgsel-9">
          <mxGeometry relative="1" as="geometry">
            <Array as="points">
              <mxPoint x="1391" y="839" />
            </Array>
          </mxGeometry>
        </mxCell>
        <mxCell id="5meDuc_fsTC-Nidfgsel-15" value="O usuário navega para a tela de criação de Inimigo" style="fillColor=#ffff88;strokeColor=#9E916F;" vertex="1" parent="1">
          <mxGeometry x="1130" y="657" width="417" height="49" as="geometry" />
        </mxCell>
        <mxCell id="5meDuc_fsTC-Nidfgsel-16" value="&#39;dadosInimigo&#39; inclui nome, nivel, atributos, etc." style="fillColor=#ffff88;strokeColor=#9E916F;" vertex="1" parent="1">
          <mxGeometry x="1130" y="758" width="502" height="49" as="geometry" />
        </mxCell>
      </root>
    </mxGraphModel>
  </diagram>
</mxfile>
